<svg width="20" height="20" viewBox="0 0 20 20" fill="none" xmlns="http://www.w3.org/2000/svg">
<path d="M9.78183 1.00949C7.90292 1.1803 6.22825 1.81527 4.74295 2.92182C4.27508 3.27086 3.26508 4.28086 2.91604 4.74873C1.92831 6.07065 1.32677 7.52253 1.06684 9.19349C0.977721 9.79132 0.977721 11.1949 1.06684 11.7928C1.32677 13.4637 1.92831 14.9156 2.91604 16.2375C3.26508 16.7054 4.27508 17.7154 4.74295 18.0644C6.06487 19.0522 7.51675 19.6537 9.18771 19.9136C9.78554 20.0027 11.1891 20.0027 11.787 19.9136C13.4579 19.6537 14.9098 19.0522 16.2317 18.0644C16.6996 17.7154 17.7096 16.7054 18.0587 16.2375C19.0464 14.9156 19.6479 13.4637 19.9079 11.7928C19.997 11.1949 19.997 9.79132 19.9079 9.19349C19.6479 7.52253 19.0464 6.07065 18.0587 4.74873C17.7096 4.28086 16.6996 3.27086 16.2317 2.92182C14.9172 1.94152 13.4468 1.32883 11.8241 1.08005C11.4491 1.02435 10.1346 0.97979 9.78183 1.00949ZM11.6533 1.89696C13.1572 2.10862 14.5014 2.65818 15.723 3.57163C16.2243 3.94667 17.0338 4.75616 17.4088 5.25745C18.3409 6.5051 18.8941 7.87529 19.1058 9.45342C19.1652 9.90643 19.1652 11.0798 19.1058 11.5328C18.8941 13.111 18.3409 14.4812 17.4088 15.7288C17.0338 16.2301 16.2243 17.0396 15.723 17.4146C14.6945 18.1833 13.5136 18.7254 12.3254 18.9705C11.6199 19.119 11.2226 19.1598 10.4873 19.1598C9.50333 19.1598 8.65671 19.0262 7.77667 18.7365C6.48446 18.3132 5.34821 17.6077 4.36049 16.62C2.96059 15.2238 2.13997 13.5417 1.8689 11.5328C1.80949 11.0798 1.80949 9.90643 1.8689 9.45342C2.08055 7.87529 2.63383 6.5051 3.56585 5.25745C3.94089 4.75616 4.75038 3.94667 5.25167 3.57163C6.64785 2.53193 8.12201 1.98608 9.96749 1.82641C10.2683 1.80042 11.2671 1.84126 11.6533 1.89696Z" fill="white"/>
<path d="M10.22 3.17432C10.1012 3.27829 10.0975 3.29315 10.0975 3.56793C10.0975 3.84271 10.1012 3.85756 10.22 3.96153C10.3091 4.04322 10.376 4.06921 10.4874 4.06921C10.5988 4.06921 10.6656 4.04322 10.7547 3.96153C10.8735 3.85756 10.8773 3.84271 10.8773 3.56793C10.8773 3.29315 10.8735 3.27829 10.7547 3.17432C10.6656 3.09263 10.5988 3.06664 10.4874 3.06664C10.376 3.06664 10.3091 3.09263 10.22 3.17432Z" fill="white"/>
<path d="M5.36305 5.17574C5.28879 5.21287 5.2071 5.29456 5.16996 5.36882C5.07713 5.5582 5.13283 5.73272 5.35191 5.9221C5.49302 6.04835 5.54871 6.07434 5.68239 6.07434C5.90519 6.07434 6.06857 5.91096 6.06857 5.68816C6.06857 5.55449 6.04258 5.49879 5.92004 5.35768C5.83463 5.26485 5.73066 5.17574 5.6861 5.1646C5.64155 5.14974 5.57842 5.13489 5.54871 5.12375C5.51901 5.11632 5.4336 5.1386 5.36305 5.17574Z" fill="white"/>
<path d="M15.3257 5.14974C15.2626 5.16831 15.1438 5.26114 15.0584 5.35397C14.9321 5.49879 14.9061 5.55449 14.9061 5.68816C14.9061 5.91096 15.0695 6.07434 15.2923 6.07434C15.426 6.07434 15.4817 6.04835 15.6228 5.9221C15.8307 5.74015 15.8939 5.56934 15.8159 5.38368C15.7342 5.18688 15.5337 5.09033 15.3257 5.14974Z" fill="white"/>
<path d="M10.3128 6.20432C10.0751 6.3083 10.0789 6.26374 10.0789 8.5251C10.0789 10.2332 10.0863 10.586 10.1308 10.6714C10.1977 10.7976 14.7427 15.3352 14.8652 15.3946C15.1623 15.5469 15.5336 15.1495 15.3777 14.8525C15.3442 14.7931 14.3231 13.7496 13.1089 12.5354L10.8958 10.326V8.40257C10.8958 6.26745 10.8995 6.30458 10.6544 6.20061C10.4985 6.13749 10.465 6.13749 10.3128 6.20432Z" fill="white"/>
<path d="M3.29851 10.1181C3.04972 10.2258 2.98659 10.5562 3.16854 10.7605C3.27251 10.8793 3.28737 10.883 3.56215 10.883C3.83693 10.883 3.85178 10.8793 3.95575 10.7605C4.10428 10.5934 4.10428 10.3928 3.95575 10.2258C3.85921 10.1181 3.82579 10.1069 3.61413 10.0958C3.48417 10.0921 3.33935 10.0995 3.29851 10.1181Z" fill="white"/>
<path d="M17.1489 10.1181C16.9001 10.2258 16.837 10.5562 17.0189 10.7605C17.1229 10.8793 17.1378 10.883 17.4125 10.883C17.6873 10.883 17.7022 10.8793 17.8062 10.7605C17.9547 10.5934 17.9547 10.3928 17.8062 10.2258C17.7096 10.1181 17.6762 10.1069 17.4645 10.0958C17.3346 10.0921 17.1898 10.0995 17.1489 10.1181Z" fill="white"/>
<path d="M5.35191 15.0641C5.13283 15.2535 5.07713 15.428 5.16996 15.6174C5.2071 15.6954 5.28507 15.7734 5.36305 15.8105C5.55243 15.9033 5.72695 15.8476 5.91633 15.6286C6.04258 15.4875 6.06857 15.4318 6.06857 15.2981C6.06857 15.1718 6.04629 15.1198 5.95346 15.027C5.86063 14.9342 5.80864 14.9119 5.68239 14.9119C5.54871 14.9119 5.49302 14.9379 5.35191 15.0641Z" fill="white"/>
<path d="M10.22 17.0247C10.1012 17.1287 10.0975 17.1435 10.0975 17.4183C10.0975 17.6931 10.1012 17.708 10.22 17.8119C10.3091 17.8936 10.376 17.9196 10.4874 17.9196C10.5988 17.9196 10.6656 17.8936 10.7547 17.8119C10.8735 17.708 10.8773 17.6931 10.8773 17.4183C10.8773 17.1435 10.8735 17.1287 10.7547 17.0247C10.6656 16.943 10.5988 16.917 10.4874 16.917C10.376 16.917 10.3091 16.943 10.22 17.0247Z" fill="white"/>
</svg>
