<svg width="20" height="21" viewBox="0 0 20 21" fill="none" xmlns="http://www.w3.org/2000/svg">
<path d="M2.19732 4.03414C1.6347 4.14315 1.14593 4.64247 1.03692 5.22618C0.987693 5.47936 0.987693 16.0108 1.03692 16.271C1.14944 16.8653 1.6347 17.3506 2.23248 17.4631C2.48917 17.5123 17.518 17.5123 17.7747 17.4631C18.3725 17.3506 18.8578 16.8653 18.9703 16.271C19.0195 16.0108 19.0195 5.48288 18.9703 5.22267C18.8578 4.6284 18.3725 4.14315 17.7747 4.03062C17.5391 3.98491 2.42588 3.98843 2.19732 4.03414ZM17.5778 4.76554C17.6446 4.79015 16.8394 5.54265 12.2435 9.72008C10.3939 11.4044 10.4607 11.3481 10.3025 11.4185C10.1232 11.5029 9.88406 11.5029 9.70121 11.4185C9.56758 11.3587 7.9149 9.87128 3.97659 6.26702C2.64741 5.05036 2.37665 4.78664 2.4294 4.76554C2.5173 4.73038 17.4899 4.73038 17.5778 4.76554ZM4.75019 7.99003C6.37474 9.47042 7.70392 10.6941 7.71095 10.7082C7.71447 10.7258 7.39096 11.0282 6.9901 11.3833C5.97739 12.28 4.73612 13.4228 3.17135 14.8926C2.43994 15.5818 1.83162 16.148 1.81403 16.155C1.79645 16.162 1.77535 16.1304 1.76129 16.0847C1.73316 15.9792 1.73316 5.54969 1.76129 5.40552C1.77535 5.34574 1.78942 5.29651 1.79294 5.29651C1.79997 5.29651 3.12915 6.50613 4.75019 7.99003ZM18.2635 10.7293C18.2635 13.6303 18.2565 16.039 18.2459 16.0847C18.2319 16.1304 18.2108 16.162 18.1932 16.155C18.1756 16.148 17.5673 15.5818 16.8359 14.8926C15.2711 13.4228 14.0298 12.28 13.0171 11.3833C12.6163 11.0282 12.2928 10.7258 12.2963 10.7082C12.3033 10.6941 13.636 9.4669 15.2606 7.983C17.9435 5.5321 18.2143 5.29651 18.2354 5.37035C18.2495 5.41607 18.26 7.82828 18.2635 10.7293ZM8.72718 11.6119C9.32847 12.1499 9.70472 12.3011 10.2251 12.2202C10.5697 12.1675 10.8229 12.0198 11.2836 11.6084C11.6422 11.2849 11.7055 11.2427 11.7583 11.2813C12.1802 11.6119 14.1318 13.3876 16.1502 15.2794C17.4864 16.5312 17.6622 16.7106 17.5919 16.7317C17.5462 16.7422 14.1318 16.7528 10.0036 16.7528C5.87542 16.7528 2.46104 16.7422 2.41533 16.7317C2.345 16.7106 2.52434 16.5312 3.85703 15.2794C4.69392 14.4953 5.67147 13.5845 6.03014 13.2575C6.70528 12.6351 8.27708 11.2391 8.29818 11.2391C8.30521 11.2391 8.49861 11.4044 8.72718 11.6119Z" fill="#1F1F1F"/>
</svg>
