<svg width="20" height="20" viewBox="0 0 20 20" fill="none" xmlns="http://www.w3.org/2000/svg">
<path d="M2.19731 3.53414C1.63469 3.64315 1.14592 4.14247 1.03691 4.72618C0.987681 4.97936 0.987681 15.5108 1.03691 15.771C1.14943 16.3653 1.63469 16.8506 2.23247 16.9631C2.48916 17.0123 17.518 17.0123 17.7747 16.9631C18.3725 16.8506 18.8578 16.3653 18.9703 15.771C19.0195 15.5108 19.0195 4.98288 18.9703 4.72267C18.8578 4.1284 18.3725 3.64315 17.7747 3.53062C17.5391 3.48491 2.42587 3.48843 2.19731 3.53414ZM17.5778 4.26554C17.6446 4.29015 16.8394 5.04265 12.2435 9.22008C10.3939 10.9044 10.4607 10.8481 10.3025 10.9185C10.1232 11.0029 9.88404 11.0029 9.70119 10.9185C9.56757 10.8587 7.91489 9.37128 3.97658 5.76702C2.6474 4.55036 2.37664 4.28664 2.42938 4.26554C2.51729 4.23038 17.4899 4.23038 17.5778 4.26554ZM4.75017 7.49003C6.37473 8.97042 7.70391 10.1941 7.71094 10.2082C7.71446 10.2258 7.39095 10.5282 6.99009 10.8833C5.97738 11.78 4.73611 12.9228 3.17133 14.3926C2.43993 15.0818 1.83161 15.648 1.81402 15.655C1.79644 15.662 1.77534 15.6304 1.76128 15.5847C1.73315 15.4792 1.73315 5.04969 1.76128 4.90552C1.77534 4.84574 1.78941 4.79651 1.79293 4.79651C1.79996 4.79651 3.12914 6.00613 4.75017 7.49003ZM18.2635 10.2293C18.2635 13.1303 18.2565 15.539 18.2459 15.5847C18.2319 15.6304 18.2108 15.662 18.1932 15.655C18.1756 15.648 17.5673 15.0818 16.8359 14.3926C15.2711 12.9228 14.0298 11.78 13.0171 10.8833C12.6162 10.5282 12.2927 10.2258 12.2963 10.2082C12.3033 10.1941 13.636 8.9669 15.2605 7.483C17.9435 5.0321 18.2143 4.79651 18.2354 4.87035C18.2494 4.91607 18.26 7.32828 18.2635 10.2293ZM8.72717 11.1119C9.32846 11.6499 9.70471 11.8011 10.2251 11.7202C10.5697 11.6675 10.8229 11.5198 11.2836 11.1084C11.6422 10.7849 11.7055 10.7427 11.7583 10.7813C12.1802 11.1119 14.1318 12.8876 16.1502 14.7794C17.4864 16.0312 17.6622 16.2106 17.5919 16.2317C17.5462 16.2422 14.1318 16.2528 10.0036 16.2528C5.87541 16.2528 2.46103 16.2422 2.41532 16.2317C2.34499 16.2106 2.52433 16.0312 3.85702 14.7794C4.69391 13.9953 5.67146 13.0845 6.03013 12.7575C6.70527 12.1351 8.27707 10.7391 8.29817 10.7391C8.3052 10.7391 8.4986 10.9044 8.72717 11.1119Z" fill="white"/>
</svg>
