<svg width="30" height="30" viewBox="0 0 30 30" fill="none" xmlns="http://www.w3.org/2000/svg">
<g clip-path="url(#clip0_310_40)">
<path d="M13.6441 0.0752106C11.1598 0.315445 8.69882 1.18849 6.6832 2.54201C5.03672 3.64943 3.56601 5.12599 2.47617 6.76662C1.97812 7.51662 1.21054 9.02834 0.905857 9.86623C-1.46133 16.3526 0.929295 23.6416 6.69492 27.4971C10.2457 29.8701 14.6637 30.5967 18.8648 29.501C21.273 28.8682 23.5699 27.5674 25.4156 25.7686C29.3707 21.9248 30.8941 16.335 29.4352 11.0147C28.3336 6.98927 25.4742 3.50294 21.7301 1.62794C20.2066 0.866226 18.7594 0.415054 17.0133 0.157242C16.2809 0.0517731 14.3824 0.00489807 13.6441 0.0752106ZM16.3746 0.784195C19.65 1.10646 22.7672 2.57716 25.0992 4.90919C27.7769 7.59279 29.2887 11.2373 29.2887 15.0166C29.2887 18.7959 27.7769 22.4404 25.0992 25.124C22.4215 27.7959 18.7652 29.3135 14.9977 29.3135C9.525 29.3135 4.52695 26.1846 2.12461 21.251C0.607029 18.1338 0.284763 14.4951 1.23398 11.126C2.68125 5.94045 7.0582 1.95021 12.3551 0.959976C13.6324 0.725601 15.1148 0.661148 16.3746 0.784195Z" fill="white"/>
<path fill-rule="evenodd" clip-rule="evenodd" d="M21.2413 21.2412C21.6174 20.8638 21.9127 20.4104 22.1054 19.9131C22.29 19.4354 22.4169 18.8908 22.4538 18.0923C22.4908 17.2927 22.5 17.0365 22.5 15C22.5 12.9635 22.4908 12.7073 22.4538 11.9077C22.4169 11.1092 22.29 10.5646 22.1054 10.0869C21.917 9.58655 21.6217 9.13332 21.2401 8.75885C20.8656 8.37727 20.4124 8.08194 19.9121 7.89346C19.4345 7.70885 18.8899 7.58192 18.0915 7.545C17.2919 7.50808 17.0358 7.5 14.9994 7.5C12.963 7.5 12.7069 7.50808 11.9074 7.54615C11.109 7.58077 10.5644 7.70769 10.0867 7.89346C9.58664 8.08237 9.13354 8.37764 8.75875 8.75885C8.37757 9.13367 8.08233 9.5868 7.89343 10.0869C7.70883 10.5646 7.58192 11.1092 7.545 11.9077C7.50808 12.7073 7.5 12.9635 7.5 15C7.5 17.0365 7.50808 17.2927 7.54615 18.0923C7.58076 18.8908 7.70768 19.4354 7.89343 19.9131C8.08265 20.4138 8.37801 20.8662 8.75875 21.2412C9.13372 21.6219 9.58715 21.9173 10.0867 22.1065C10.5644 22.2912 11.109 22.4181 11.9074 22.455C12.7069 22.4908 12.963 22.5 14.9994 22.5C17.0358 22.5 17.2919 22.4908 18.0915 22.4538C18.8899 22.4192 19.4345 22.2923 19.9121 22.1065C20.4102 21.9137 20.8625 21.619 21.2401 21.2412H21.2413ZM8.65376 14.1173V15.8827C8.65145 16.83 8.65145 17.0758 8.67683 17.6135C8.70683 18.2896 8.74375 18.7858 8.85682 19.1596C8.96527 19.5196 9.08642 19.8865 9.48331 20.3273C9.8802 20.7692 10.2621 20.9688 10.749 21.1165C11.237 21.2631 11.8497 21.2942 12.3815 21.3185C12.9838 21.3462 13.2238 21.3462 14.4883 21.3462H15.8532C16.8247 21.3473 17.0693 21.3485 17.6138 21.3231C18.2888 21.2919 18.7849 21.255 19.1599 21.1431C19.5187 21.0346 19.8856 20.9123 20.3263 20.5165C20.7682 20.1196 20.9678 19.7365 21.1155 19.2496C21.262 18.7627 21.2943 18.15 21.3186 17.6181C21.3451 17.0158 21.3451 16.7769 21.3451 15.5158V14.4888C21.3451 13.2242 21.3451 12.9854 21.3186 12.3819C21.2943 11.85 21.262 11.2373 21.1155 10.7504C20.969 10.2623 20.7694 9.88038 20.3263 9.48346C19.8844 9.08654 19.5187 8.96538 19.1599 8.85692C18.7849 8.745 18.2888 8.70692 17.6138 8.67692C17.0273 8.65282 16.4402 8.64512 15.8532 8.65385H14.4883C13.2238 8.65385 12.9838 8.65385 12.3815 8.68038C11.8497 8.70462 11.237 8.73692 10.749 8.88346C10.2621 9.03115 9.8802 9.23077 9.48331 9.67269C9.08642 10.1146 8.96412 10.4804 8.85682 10.8404C8.74375 11.2142 8.70683 11.7104 8.67683 12.3865C8.65145 12.9242 8.65145 13.17 8.65376 14.1173ZM14.9994 12.4038C14.3109 12.4038 13.6506 12.6774 13.1638 13.1642C12.677 13.6511 12.4035 14.3115 12.4035 15C12.4035 15.6885 12.677 16.3489 13.1638 16.8358C13.6506 17.3226 14.3109 17.5962 14.9994 17.5962C15.6879 17.5962 16.3482 17.3226 16.835 16.8358C17.3219 16.3489 17.5954 15.6885 17.5954 15C17.5954 14.3115 17.3219 13.6511 16.835 13.1642C16.3482 12.6774 15.6879 12.4038 14.9994 12.4038ZM11.2497 15C11.2497 14.0054 11.6448 13.0516 12.348 12.3483C13.0512 11.6451 14.0049 11.25 14.9994 11.25C15.9939 11.25 16.9477 11.6451 17.6509 12.3483C18.3541 13.0516 18.7491 14.0054 18.7491 15C18.7491 15.9946 18.3541 16.9484 17.6509 17.6516C16.9477 18.3549 15.9939 18.75 14.9994 18.75C14.0049 18.75 13.0512 18.3549 12.348 17.6516C11.6448 16.9484 11.2497 15.9946 11.2497 15ZM19.003 11.8615C19.2325 11.8615 19.4526 11.7704 19.6148 11.6081C19.7771 11.4458 19.8683 11.2257 19.8683 10.9962C19.8683 10.7666 19.7771 10.5465 19.6148 10.3842C19.4526 10.2219 19.2325 10.1308 19.003 10.1308C18.7735 10.1308 18.5534 10.2219 18.3911 10.3842C18.2288 10.5465 18.1376 10.7666 18.1376 10.9962C18.1376 11.2257 18.2288 11.4458 18.3911 11.6081C18.5534 11.7704 18.7735 11.8615 19.003 11.8615Z" fill="white" stroke="#1F1F1F" stroke-width="0.5"/>
</g>
<defs>
<clipPath id="clip0_310_40">
<rect width="30" height="30" fill="white"/>
</clipPath>
</defs>
</svg>
