<svg width="20" height="20" viewBox="0 0 20 20" fill="none" xmlns="http://www.w3.org/2000/svg">
<g clip-path="url(#clip0_310_96)">
<path d="M9.73777 -0.015274C9.67811 -0.00675201 9.448 0.031601 9.22641 0.069952C7.99914 0.265976 6.80169 0.888134 5.87698 1.81285C4.79459 2.89098 4.21931 4.16939 4.02754 5.92507C3.78038 8.15802 5.20368 11.337 8.01192 14.8356C8.25908 15.1424 8.45936 15.3981 8.45084 15.4023C8.44232 15.4066 8.31448 15.445 8.16107 15.4876C7.29601 15.7219 6.60993 16.1523 6.37556 16.6168C5.97499 17.4009 6.56306 18.1765 7.88834 18.6197C9.41391 19.1268 11.5105 19.1268 13.0361 18.6197C13.5986 18.4322 13.9821 18.2148 14.2846 17.9208C14.4977 17.7077 14.5616 17.614 14.617 17.4094C14.7875 16.8342 14.5105 16.3228 13.8031 15.9052C13.5304 15.7433 12.6909 15.4279 12.5332 15.4279C12.4949 15.4279 12.465 15.4194 12.465 15.4066C12.465 15.3938 12.6227 15.1893 12.8187 14.9464C15.6483 11.4691 17.127 8.21768 16.9011 5.97194C16.7222 4.212 16.1383 2.90376 15.0474 1.81285C14.3358 1.1012 13.6156 0.649498 12.6866 0.325634C11.9878 0.082737 11.4466 -0.00675201 10.59 -0.0195351C10.181 -0.028059 9.79743 -0.023798 9.73777 -0.015274ZM11.5616 0.704897C13.3301 1.05007 14.8642 2.2262 15.6525 3.84552C16.002 4.56569 16.181 5.24325 16.2406 6.07848C16.3727 7.99183 15.2477 10.5913 12.9935 13.5955C12.056 14.8441 10.5517 16.5998 10.4452 16.5657C10.3727 16.5401 9.32016 15.3512 8.76192 14.6609C6.29885 11.614 4.95226 9.05717 4.70936 6.94779C4.59004 5.92081 4.80737 4.74893 5.30169 3.77734C6.19232 2.03444 7.87556 0.87109 9.86561 0.62393C10.1639 0.585577 11.2165 0.636715 11.5616 0.704897ZM9.62272 16.7063C10.2534 17.3881 10.3557 17.4648 10.5687 17.4137C10.6327 17.3967 10.9267 17.1112 11.3017 16.7063C11.7193 16.2546 11.9579 16.0245 12.0176 16.0245C12.1625 16.0245 12.8827 16.229 13.2108 16.3697C13.7307 16.5827 14.0204 16.9066 13.965 17.2006C13.8883 17.6055 13.0829 17.9933 11.8898 18.2021C11.0971 18.3427 9.82726 18.3427 9.03465 18.2021C7.8159 17.989 7.03607 17.6055 6.9551 17.1793C6.8997 16.9023 7.20226 16.5785 7.71789 16.3654C8.06306 16.2205 8.71931 16.033 8.8855 16.0288C8.97499 16.0245 9.11988 16.1609 9.62272 16.7063Z" fill="white"/>
<path d="M9.86563 3.38953C9.51193 3.46197 9.29034 3.54294 8.93665 3.73044C7.5517 4.45487 7.01903 6.30004 7.75625 7.82135C8.19943 8.73754 9.14545 9.34692 10.279 9.44067C12.073 9.59408 13.6455 8.00459 13.5134 6.1722C13.4622 5.40942 13.1682 4.78726 12.5929 4.21197C12.2818 3.90516 12.154 3.81141 11.8216 3.65373C11.1824 3.34266 10.5261 3.25743 9.86563 3.38953ZM10.9864 4.07135C11.8301 4.25033 12.5205 4.90658 12.742 5.73754C12.823 6.0401 12.8315 6.67504 12.7634 6.96908C12.6014 7.62959 12.1497 8.2134 11.5659 8.49891C10.5645 8.99323 9.45653 8.79294 8.71506 7.98754C8.42102 7.66794 8.26761 7.38669 8.16108 6.96482C8.01193 6.38527 8.06307 5.90374 8.34006 5.33271C8.80881 4.35686 9.89119 3.83697 10.9864 4.07135Z" fill="white"/>
</g>
<defs>
<clipPath id="clip0_310_96">
<rect width="20" height="20" fill="white"/>
</clipPath>
</defs>
</svg>
