<svg width="20" height="21" viewBox="0 0 20 21" fill="none" xmlns="http://www.w3.org/2000/svg">
<g clip-path="url(#clip0_110_534)">
<path d="M9.73777 0.484726C9.67811 0.493248 9.448 0.531601 9.22641 0.569952C7.99914 0.765976 6.80169 1.38813 5.87698 2.31285C4.79459 3.39098 4.21931 4.66939 4.02754 6.42507C3.78038 8.65802 5.20368 11.837 8.01192 15.3356C8.25908 15.6424 8.45936 15.8981 8.45084 15.9023C8.44232 15.9066 8.31448 15.945 8.16107 15.9876C7.29601 16.2219 6.60993 16.6523 6.37556 17.1168C5.97499 17.9009 6.56306 18.6765 7.88834 19.1197C9.41391 19.6268 11.5105 19.6268 13.0361 19.1197C13.5986 18.9322 13.9821 18.7148 14.2846 18.4208C14.4977 18.2077 14.5616 18.114 14.617 17.9094C14.7875 17.3342 14.5105 16.8228 13.8031 16.4052C13.5304 16.2433 12.6909 15.9279 12.5332 15.9279C12.4949 15.9279 12.465 15.9194 12.465 15.9066C12.465 15.8938 12.6227 15.6893 12.8187 15.4464C15.6483 11.9691 17.127 8.71768 16.9011 6.47194C16.7222 4.712 16.1383 3.40376 15.0474 2.31285C14.3358 1.6012 13.6156 1.1495 12.6866 0.825634C11.9878 0.582737 11.4466 0.493248 10.59 0.480465C10.181 0.471941 9.79743 0.476202 9.73777 0.484726ZM11.5616 1.2049C13.3301 1.55007 14.8642 2.7262 15.6525 4.34552C16.002 5.06569 16.181 5.74325 16.2406 6.57848C16.3727 8.49183 15.2477 11.0913 12.9935 14.0955C12.056 15.3441 10.5517 17.0998 10.4452 17.0657C10.3727 17.0401 9.32016 15.8512 8.76192 15.1609C6.29885 12.114 4.95226 9.55717 4.70936 7.44779C4.59004 6.42081 4.80737 5.24893 5.30169 4.27734C6.19232 2.53444 7.87556 1.37109 9.86561 1.12393C10.1639 1.08558 11.2165 1.13671 11.5616 1.2049ZM9.62272 17.2063C10.2534 17.8881 10.3557 17.9648 10.5687 17.9137C10.6327 17.8967 10.9267 17.6112 11.3017 17.2063C11.7193 16.7546 11.9579 16.5245 12.0176 16.5245C12.1625 16.5245 12.8827 16.729 13.2108 16.8697C13.7307 17.0827 14.0204 17.4066 13.965 17.7006C13.8883 18.1055 13.0829 18.4933 11.8898 18.7021C11.0971 18.8427 9.82726 18.8427 9.03465 18.7021C7.8159 18.489 7.03607 18.1055 6.9551 17.6793C6.8997 17.4023 7.20226 17.0785 7.71789 16.8654C8.06306 16.7205 8.71931 16.533 8.8855 16.5288C8.97499 16.5245 9.11988 16.6609 9.62272 17.2063Z" fill="#1F1F1F"/>
<path d="M9.8657 3.88953C9.51201 3.96197 9.29042 4.04294 8.93672 4.23044C7.55178 4.95487 7.01911 6.80004 7.75633 8.32135C8.19951 9.23754 9.14553 9.84692 10.2791 9.94067C12.0731 10.0941 13.6455 8.50459 13.5134 6.6722C13.4623 5.90942 13.1683 5.28726 12.593 4.71197C12.2819 4.40516 12.1541 4.31141 11.8217 4.15373C11.1825 3.84266 10.5262 3.75743 9.8657 3.88953ZM10.9864 4.57135C11.8302 4.75033 12.5205 5.40658 12.7421 6.23754C12.8231 6.5401 12.8316 7.17504 12.7634 7.46908C12.6015 8.12959 12.1498 8.7134 11.566 8.99891C10.5646 9.49323 9.45661 9.29294 8.71513 8.48754C8.4211 8.16794 8.26769 7.88669 8.16116 7.46482C8.01201 6.88527 8.06314 6.40374 8.34013 5.83271C8.80888 4.85686 9.89127 4.33697 10.9864 4.57135Z" fill="#1F1F1F"/>
</g>
<defs>
<clipPath id="clip0_110_534">
<rect width="20" height="20" fill="white" transform="translate(0 0.5)"/>
</clipPath>
</defs>
</svg>
