<svg width="305" height="56" viewBox="0 0 305 56" fill="none" xmlns="http://www.w3.org/2000/svg">
<g clip-path="url(#clip0_249_126)">
<path d="M140.733 27.1453L140.154 29.5444H129.603L126.805 49.5158H123.974L127.094 27.1453C128.231 27.0804 129.367 27.0371 130.504 27.0156C131.662 26.9723 132.809 26.9507 133.946 26.9507C135.125 26.9507 136.262 26.9723 137.355 27.0156C138.47 27.0371 139.596 27.0804 140.733 27.1453ZM133.206 36.7743C135.028 36.7743 136.444 36.9904 137.452 37.4227C138.481 37.8333 139.167 38.5251 139.51 39.4977C139.853 40.4488 139.907 41.7457 139.671 43.3882C139.435 45.0956 139.028 46.4143 138.449 47.3436C137.87 48.2514 137.066 48.8889 136.036 49.2564C135.007 49.624 133.667 49.8076 132.016 49.8076C130.75 49.8076 129.667 49.7967 128.767 49.7752C127.887 49.7537 127.073 49.7212 126.322 49.6779C125.593 49.6346 124.81 49.5806 123.974 49.5158L124.746 47.2463C125.196 47.2678 126.033 47.2896 127.255 47.3112C128.499 47.3327 129.968 47.3436 131.662 47.3436C132.884 47.3436 133.838 47.2354 134.525 47.0194C135.211 46.7815 135.726 46.3601 136.069 45.755C136.433 45.128 136.691 44.2421 136.841 43.0964C136.991 42.0374 136.991 41.216 136.841 40.6324C136.712 40.0273 136.358 39.6059 135.779 39.368C135.2 39.1302 134.289 39.0114 133.045 39.0114H125.936L126.226 36.7743H133.206ZM148.668 33.7267L147.124 44.8472C146.974 45.8198 147.039 46.5115 147.317 46.9221C147.618 47.3327 148.175 47.5381 148.99 47.5381C149.977 47.5381 150.942 47.2248 151.885 46.5979C152.85 45.9495 154.03 44.9878 155.423 43.7124L155.681 45.6901C154.308 47.0951 153 48.1541 151.756 48.8674C150.534 49.5806 149.301 49.9373 148.057 49.9373C146.62 49.9373 145.58 49.5482 144.937 48.7701C144.315 47.9705 144.101 46.8897 144.294 45.528L145.934 33.7267H148.668ZM159.348 33.7267L157.16 49.5158H155.07L155.327 45.1714L155.134 44.7175L156.646 33.7267H159.348ZM170.906 33.3377C171.699 33.2944 172.482 33.2944 173.254 33.3377C174.026 33.381 174.712 33.5213 175.313 33.7592C175.913 33.9752 176.374 34.3536 176.696 34.8939C177.018 35.4126 177.125 36.1368 177.018 37.0661C176.932 37.8657 176.706 38.5466 176.342 39.1086C175.977 39.6489 175.559 40.1028 175.088 40.4703C174.616 40.816 174.144 41.0972 173.672 41.3133C173.2 41.5078 172.793 41.6699 172.45 41.7996L167.754 43.6152C167.024 43.9179 166.488 44.2312 166.145 44.5554C165.802 44.8581 165.609 45.2577 165.566 45.755C165.502 46.2952 165.577 46.6952 165.791 46.9545C166.027 47.1924 166.37 47.3545 166.821 47.4409C167.292 47.5057 167.839 47.5381 168.461 47.5381C169.362 47.5166 170.23 47.4624 171.067 47.376C171.924 47.2678 172.761 47.1275 173.576 46.9545C174.412 46.76 175.238 46.5331 176.053 46.2737L176.149 48.5107C175.141 48.8998 174.165 49.2025 173.222 49.4185C172.278 49.6131 171.399 49.7427 170.584 49.8076C169.791 49.8939 169.094 49.9373 168.493 49.9373C167.271 49.9373 166.21 49.7967 165.309 49.5158C164.43 49.2564 163.765 48.8241 163.314 48.219C162.864 47.5921 162.703 46.7491 162.832 45.6901C162.961 44.5878 163.368 43.7124 164.054 43.064C164.74 42.3941 165.727 41.8105 167.014 41.3133L171.388 39.6598C172.46 39.2923 173.211 38.9141 173.64 38.5251C174.09 38.136 174.337 37.6712 174.38 37.131C174.444 36.6771 174.369 36.3419 174.155 36.1259C173.962 35.8881 173.586 35.7368 173.029 35.672C172.471 35.6072 171.688 35.5963 170.681 35.6396C170.166 35.6611 169.673 35.6935 169.201 35.7368C168.751 35.7802 168.29 35.845 167.818 35.9314C167.346 35.9962 166.842 36.0826 166.306 36.1907C165.77 36.2771 165.159 36.3962 164.472 36.5474L164.408 34.3752C165.48 34.051 166.563 33.8131 167.657 33.6619C168.751 33.4889 169.834 33.381 170.906 33.3377ZM200.121 27.1453L197 49.5158H194.17L197.29 27.1453H200.121ZM207.262 27.1453L206.94 29.6741H189.795L190.149 27.1453H207.262ZM213.363 33.3377C213.921 33.3377 214.511 33.3592 215.132 33.4025C215.754 33.424 216.387 33.4783 217.03 33.5646C217.695 33.6295 218.338 33.7052 218.96 33.7916C219.582 33.8779 220.161 33.9752 220.697 34.0834L219.507 35.8017C218.328 35.7584 217.266 35.7259 216.323 35.7044C215.379 35.6611 214.661 35.6396 214.167 35.6396C213.095 35.6396 212.216 35.7153 211.53 35.8665C210.844 35.9962 210.297 36.2665 209.889 36.6771C209.482 37.0876 209.16 37.693 208.924 38.4926C208.688 39.2923 208.474 40.3515 208.281 41.6699C208.045 43.2476 207.938 44.4581 207.959 45.3011C208.002 46.144 208.195 46.7276 208.538 47.0518C208.903 47.3545 209.45 47.5057 210.179 47.5057C210.951 47.5057 211.712 47.3436 212.462 47.0194C213.234 46.6736 214.017 46.1764 214.811 45.528C215.626 44.8581 216.473 44.0582 217.352 43.1288L217.899 44.4581C217.363 45.4307 216.666 46.3276 215.808 47.1491C214.971 47.9705 214.028 48.6404 212.977 49.1592C211.948 49.6564 210.833 49.9049 209.632 49.9049C208.388 49.9049 207.412 49.6455 206.705 49.1267C205.997 48.5865 205.547 47.7002 205.354 46.4682C205.161 45.2147 205.214 43.5394 205.514 41.443C205.772 39.6707 206.115 38.2442 206.544 37.1634C206.973 36.0826 207.498 35.272 208.12 34.7318C208.763 34.1697 209.514 33.8025 210.372 33.6295C211.251 33.435 212.248 33.3377 213.363 33.3377ZM217.963 34.0834H220.697L218.542 49.5158H216.387L216.612 45.7874L216.355 45.528L217.963 34.0834ZM235.757 33.3377C236.979 33.3377 237.933 33.5971 238.62 34.1158C239.306 34.613 239.746 35.4775 239.939 36.7095C240.132 37.92 240.078 39.6165 239.778 41.7996C239.52 43.5718 239.177 44.9984 238.748 46.0792C238.319 47.16 237.794 47.9811 237.172 48.5432C236.55 49.0834 235.821 49.451 234.985 49.6455C234.148 49.84 233.194 49.9373 232.122 49.9373C231.586 49.9373 231.017 49.9158 230.417 49.8724C229.817 49.8291 229.195 49.7752 228.551 49.7103C227.929 49.6455 227.318 49.5697 226.718 49.4834C226.118 49.3752 225.56 49.2673 225.045 49.1592L225.817 47.5057C226.997 47.549 228.048 47.592 228.97 47.6354C229.913 47.6569 230.631 47.6678 231.125 47.6678C232.197 47.6678 233.076 47.603 233.762 47.4733C234.449 47.3221 234.996 47.0409 235.403 46.6303C235.81 46.1979 236.132 45.5819 236.368 44.7823C236.604 43.9827 236.818 42.9234 237.011 41.6051C237.226 40.0055 237.312 38.7844 237.269 37.9415C237.247 37.0985 237.065 36.5259 236.722 36.2232C236.379 35.899 235.853 35.7368 235.146 35.7368C234.61 35.7368 233.945 35.9099 233.151 36.2556C232.358 36.6013 231.511 37.0985 230.61 37.747C229.731 38.3954 228.841 39.1844 227.94 40.1137L227.393 38.8168C227.801 38.1899 228.326 37.5633 228.97 36.9364C229.634 36.288 230.353 35.6935 231.125 35.1533C231.897 34.613 232.68 34.1806 233.473 33.8564C234.288 33.5107 235.049 33.3377 235.757 33.3377ZM228.905 33.7267L228.68 37.2931L228.937 37.5524L227.426 48.7053L227.136 49.2564C227.136 49.8185 227.115 50.3478 227.072 50.8451C227.05 51.3638 226.986 51.9259 226.879 52.531L226.332 56.0973H223.598L226.75 33.7267H228.905ZM251.844 33.3377C252.638 33.2944 253.421 33.2944 254.193 33.3377C254.965 33.381 255.651 33.5213 256.251 33.7592C256.852 33.9752 257.313 34.3536 257.634 34.8939C257.956 35.4126 258.063 36.1368 257.956 37.0661C257.87 37.8657 257.645 38.5466 257.281 39.1086C256.916 39.6489 256.498 40.1028 256.026 40.4703C255.554 40.816 255.082 41.0972 254.611 41.3133C254.139 41.5078 253.731 41.6699 253.388 41.7996L248.692 43.6152C247.963 43.9179 247.427 44.2312 247.084 44.5554C246.741 44.8581 246.548 45.2577 246.505 45.755C246.44 46.2952 246.515 46.6952 246.73 46.9545C246.966 47.1924 247.309 47.3545 247.759 47.4409C248.231 47.5057 248.778 47.5381 249.4 47.5381C250.3 47.5166 251.169 47.4624 252.005 47.376C252.863 47.2678 253.699 47.1275 254.514 46.9545C255.351 46.76 256.176 46.5331 256.991 46.2737L257.088 48.5107C256.08 48.8998 255.104 49.2025 254.16 49.4185C253.217 49.6131 252.338 49.7427 251.523 49.8076C250.729 49.8939 250.032 49.9373 249.432 49.9373C248.209 49.9373 247.148 49.7967 246.247 49.5158C245.368 49.2564 244.703 48.8241 244.253 48.219C243.803 47.5921 243.642 46.7491 243.77 45.6901C243.899 44.5878 244.306 43.7124 244.993 43.064C245.679 42.3941 246.665 41.8105 247.952 41.3133L252.327 39.6598C253.399 39.2923 254.15 38.9141 254.579 38.5251C255.029 38.136 255.275 37.6712 255.318 37.131C255.383 36.6771 255.308 36.3419 255.093 36.1259C254.9 35.8881 254.525 35.7368 253.967 35.672C253.41 35.6072 252.627 35.5963 251.619 35.6396C251.104 35.6611 250.611 35.6935 250.139 35.7368C249.689 35.7802 249.228 35.845 248.756 35.9314C248.285 35.9962 247.78 36.0826 247.244 36.1907C246.708 36.2771 246.097 36.3962 245.411 36.5474L245.347 34.3752C246.419 34.051 247.502 33.8131 248.595 33.6619C249.689 33.4889 250.772 33.381 251.844 33.3377ZM270.617 33.3377C272.269 33.3377 273.544 33.5322 274.444 33.9213C275.345 34.2888 275.945 34.8506 276.246 35.6072C276.567 36.3638 276.632 37.2931 276.439 38.3954C276.266 39.4113 275.945 40.2219 275.474 40.827C275.023 41.432 274.392 41.8859 273.576 42.1886C272.76 42.4913 271.731 42.6965 270.488 42.8046L262.864 43.5179L263.154 41.443L270.456 40.7297C271.163 40.6648 271.731 40.5567 272.161 40.4055C272.611 40.2325 272.953 39.9731 273.19 39.6274C273.447 39.2598 273.629 38.7735 273.737 38.1684C273.865 37.3688 273.813 36.7958 273.576 36.4501C273.339 36.0826 272.944 35.8556 272.386 35.7693C271.827 35.6829 271.12 35.6396 270.263 35.6396C269.406 35.6396 268.675 35.7153 268.075 35.8665C267.476 36.0177 266.97 36.2989 266.564 36.7095C266.157 37.0985 265.824 37.6606 265.566 38.3954C265.309 39.1302 265.084 40.0922 264.891 41.2808C264.634 43.0316 264.622 44.3608 264.859 45.2686C265.096 46.1764 265.546 46.7924 266.21 47.1166C266.897 47.4193 267.786 47.5705 268.88 47.5705C269.459 47.5705 270.081 47.5596 270.745 47.5381C271.432 47.4948 272.108 47.4408 272.772 47.376C273.436 47.3112 274.058 47.2463 274.637 47.1815L274.83 49.0295C274.295 49.2455 273.64 49.4185 272.868 49.5482C272.096 49.6779 271.313 49.7643 270.52 49.8076C269.748 49.8724 269.052 49.9049 268.429 49.9049C266.628 49.9049 265.213 49.6022 264.183 48.9971C263.174 48.3702 262.499 47.4193 262.157 46.144C261.835 44.8472 261.803 43.2152 262.06 41.2484C262.274 39.6922 262.587 38.4063 262.993 37.3903C263.4 36.3528 263.938 35.5423 264.601 34.9587C265.265 34.3752 266.093 33.9646 267.078 33.7267C268.064 33.4674 269.245 33.3377 270.617 33.3377ZM284.258 33.7267L284.001 37.8118L284.194 38.2981L282.65 49.5158H279.948L282.135 33.7267H284.258ZM290.885 33.3377C292.279 33.3377 293.277 33.7376 293.876 34.5373C294.499 35.3154 294.712 36.3744 294.519 37.7145L292.879 49.5158H290.241L291.785 38.3954C291.914 37.4443 291.838 36.7528 291.56 36.3204C291.303 35.888 290.744 35.672 289.887 35.672C289.329 35.672 288.773 35.8017 288.215 36.0611C287.656 36.2989 287.036 36.688 286.349 37.2282C285.685 37.7685 284.858 38.4926 283.872 39.4004L283.808 37.3903C285.138 36.0071 286.37 34.9912 287.507 34.3427C288.645 33.6728 289.77 33.3377 290.885 33.3377ZM301.178 33.3377C302.573 33.3377 303.579 33.7376 304.202 34.5373C304.825 35.3154 305.038 36.3744 304.845 37.7145L303.205 49.5158H300.47L302.014 38.3954C302.163 37.3579 302.067 36.6446 301.725 36.2556C301.403 35.8665 300.868 35.672 300.117 35.672C299.581 35.672 299.043 35.7908 298.508 36.0286C297.994 36.2665 297.394 36.6555 296.707 37.1958C296.043 37.7145 295.215 38.4387 294.23 39.368L294.166 37.3903C295.496 35.9853 296.719 34.9587 297.833 34.3103C298.947 33.6619 300.064 33.3377 301.178 33.3377Z" fill="white"/>
<path d="M287.162 6.87326C113.419 -9.57635 50.4858 26.4547 39.898 49.4896H73.7272C90.6677 6.17886 222.989 2.66551 287.162 6.87326Z" fill="#3A52A7"/>
<path d="M32.6672 49.4291H0C23.9646 -3.87619 172.418 -3.17371 245.198 2.63921C74.5019 -8.94327 38.9941 35.1742 32.6672 49.4291Z" fill="#3A52A7"/>
</g>
<defs>
<clipPath id="clip0_249_126">
<rect width="305" height="56" fill="white"/>
</clipPath>
</defs>
</svg>
