<svg width="30" height="30" viewBox="0 0 30 30" fill="none" xmlns="http://www.w3.org/2000/svg">
<path d="M11.0937 26.375L21.625 15.875C21.75 15.75 21.8387 15.6146 21.8912 15.4688C21.9437 15.3229 21.9696 15.1667 21.9687 15C21.9687 14.8333 21.9429 14.6771 21.8912 14.5312C21.8396 14.3854 21.7508 14.25 21.625 14.125L11.0937 3.59375C10.8021 3.30208 10.4375 3.15625 9.99998 3.15625C9.56248 3.15625 9.18748 3.3125 8.87498 3.625C8.56248 3.9375 8.40623 4.30208 8.40623 4.71875C8.40623 5.13542 8.56248 5.5 8.87498 5.8125L18.0625 15L8.87498 24.1875C8.58331 24.4792 8.43748 24.8388 8.43748 25.2663C8.43748 25.6938 8.59373 26.0633 8.90623 26.375C9.21873 26.6875 9.58331 26.8438 9.99998 26.8438C10.4166 26.8438 10.7812 26.6875 11.0937 26.375Z" fill="white"/>
</svg>
