<svg width="20" height="20" viewBox="0 0 20 20" fill="none" xmlns="http://www.w3.org/2000/svg">
<g clip-path="url(#clip0_310_86)">
<path d="M3.8086 0.972647C2.49219 1.28124 1.58204 1.90233 1.15235 2.78905C0.886723 3.33593 0.843754 3.5664 0.84766 4.39452C0.863285 7.14843 1.72266 9.97265 3.26563 12.3516C4.28516 13.9258 5.6836 15.3672 7.26563 16.4726C9.69141 18.1719 12.6836 19.1328 15.6055 19.1523C16.1758 19.1562 16.3594 19.1445 16.582 19.0859C17.875 18.7461 18.707 17.7187 19.0469 16.0508C19.1328 15.6328 19.1055 15.1094 18.9883 14.7969C18.8164 14.3516 18.7188 14.25 17.4805 13.2695C16.0039 12.0976 15.8711 12 15.5508 11.8828C15.207 11.7578 14.7227 11.7266 14.3594 11.8125C13.9141 11.918 13.6758 12.0742 12.9961 12.7109L12.375 13.293L12.1719 13.2422C10.668 12.8633 8.49219 11.1758 7.41407 9.55077C7.04297 8.99218 6.75782 8.31249 6.69532 7.85155L6.67188 7.66015L7.27344 7.01952C7.91797 6.33202 8.08204 6.08983 8.1836 5.66015C8.29688 5.17187 8.24219 4.68749 8.01954 4.23437C7.96485 4.11718 7.44141 3.41796 6.85938 2.68358C5.74219 1.27343 5.65625 1.18749 5.20313 1.01171C4.89063 0.890615 4.2461 0.871084 3.8086 0.972647ZM4.9961 1.83593C5.17969 1.91796 5.26172 2.01171 6.17969 3.16796C6.72266 3.85155 7.22266 4.51171 7.28516 4.63671C7.38672 4.83202 7.40235 4.89452 7.39844 5.17187C7.39454 5.6328 7.32422 5.7578 6.60157 6.51562C5.79297 7.37108 5.83985 7.30468 5.84766 7.64843C5.89844 9.33202 7.67188 11.6875 9.98829 13.1484C10.8672 13.7031 12.2344 14.2344 12.5859 14.1601C12.668 14.1406 12.9258 13.9258 13.4141 13.4726C14.2539 12.6875 14.4023 12.5976 14.8438 12.6016C15.0586 12.6016 15.1875 12.625 15.3242 12.6875C15.4258 12.7305 16.0898 13.2226 16.7969 13.7773C18.2578 14.9219 18.25 14.9141 18.2734 15.4297C18.3008 15.957 18.0469 16.7812 17.6992 17.3125C17.375 17.8125 16.9453 18.125 16.3984 18.2656C16.1953 18.3203 16.0117 18.3281 15.3516 18.3086C14.5 18.2851 13.875 18.2187 13.0859 18.0625C7.77735 17.0156 3.4961 12.9922 2.12891 7.7539C1.85157 6.6953 1.72266 5.79296 1.69141 4.66796C1.67188 3.98437 1.67969 3.80858 1.73438 3.60155C1.94532 2.77343 2.52735 2.23827 3.57422 1.89843C4.17969 1.70312 4.64063 1.68358 4.9961 1.83593Z" fill="white"/>
</g>
<defs>
<clipPath id="clip0_310_86">
<rect width="20" height="20" fill="white"/>
</clipPath>
</defs>
</svg>
