<svg width="30" height="30" viewBox="0 0 30 30" fill="none" xmlns="http://www.w3.org/2000/svg">
<path d="M18.9063 26.375L8.37502 15.875C8.25002 15.75 8.16127 15.6146 8.10877 15.4688C8.05627 15.3229 8.03044 15.1667 8.03127 15C8.03127 14.8333 8.0571 14.6771 8.10877 14.5312C8.16044 14.3854 8.24919 14.25 8.37502 14.125L18.9063 3.59375C19.1979 3.30208 19.5625 3.15625 20 3.15625C20.4375 3.15625 20.8125 3.3125 21.125 3.625C21.4375 3.9375 21.5938 4.30208 21.5938 4.71875C21.5938 5.13542 21.4375 5.5 21.125 5.8125L11.9375 15L21.125 24.1875C21.4167 24.4792 21.5625 24.8387 21.5625 25.2663C21.5625 25.6938 21.4063 26.0633 21.0938 26.375C20.7813 26.6875 20.4167 26.8438 20 26.8438C19.5834 26.8438 19.2188 26.6875 18.9063 26.375Z" fill="white"/>
</svg>
