<svg width="20" height="21" viewBox="0 0 20 21" fill="none" xmlns="http://www.w3.org/2000/svg">
<path d="M3.80858 1.47265C2.49218 1.78124 1.58202 2.40233 1.15233 3.28905C0.886707 3.83593 0.843739 4.0664 0.847645 4.89452C0.86327 7.64843 1.72264 10.4726 3.26561 12.8516C4.28514 14.4258 5.68358 15.8672 7.26561 16.9726C9.69139 18.6719 12.6836 19.6328 15.6055 19.6523C16.1758 19.6562 16.3594 19.6445 16.582 19.5859C17.875 19.2461 18.707 18.2187 19.0469 16.5508C19.1328 16.1328 19.1055 15.6094 18.9883 15.2969C18.8164 14.8516 18.7187 14.75 17.4805 13.7695C16.0039 12.5976 15.8711 12.5 15.5508 12.3828C15.207 12.2578 14.7226 12.2266 14.3594 12.3125C13.9141 12.418 13.6758 12.5742 12.9961 13.2109L12.375 13.793L12.1719 13.7422C10.668 13.3633 8.49218 11.6758 7.41405 10.0508C7.04296 9.49218 6.7578 8.81249 6.6953 8.35155L6.67186 8.16015L7.27343 7.51952C7.91796 6.83202 8.08202 6.58983 8.18358 6.16015C8.29686 5.67187 8.24218 5.18749 8.01952 4.73437C7.96483 4.61718 7.44139 3.91796 6.85936 3.18358C5.74218 1.77343 5.65624 1.68749 5.20311 1.51171C4.89061 1.39062 4.24608 1.37108 3.80858 1.47265ZM4.99608 2.33593C5.17968 2.41796 5.26171 2.51171 6.17968 3.66796C6.72264 4.35155 7.22264 5.01171 7.28514 5.13671C7.38671 5.33202 7.40233 5.39452 7.39843 5.67187C7.39452 6.1328 7.32421 6.2578 6.60155 7.01562C5.79296 7.87108 5.83983 7.80468 5.84764 8.14843C5.89843 9.83202 7.67186 12.1875 9.98827 13.6484C10.8672 14.2031 12.2344 14.7344 12.5859 14.6601C12.668 14.6406 12.9258 14.4258 13.4141 13.9726C14.2539 13.1875 14.4023 13.0976 14.8437 13.1016C15.0586 13.1016 15.1875 13.125 15.3242 13.1875C15.4258 13.2305 16.0898 13.7226 16.7969 14.2773C18.2578 15.4219 18.25 15.4141 18.2734 15.9297C18.3008 16.457 18.0469 17.2812 17.6992 17.8125C17.375 18.3125 16.9453 18.625 16.3984 18.7656C16.1953 18.8203 16.0117 18.8281 15.3516 18.8086C14.5 18.7851 13.875 18.7187 13.0859 18.5625C7.77733 17.5156 3.49608 13.4922 2.12889 8.2539C1.85155 7.1953 1.72264 6.29296 1.69139 5.16796C1.67186 4.48437 1.67968 4.30858 1.73436 4.10155C1.9453 3.27343 2.52733 2.73827 3.57421 2.39843C4.17968 2.20312 4.64061 2.18358 4.99608 2.33593Z" fill="#1F1F1F"/>
</svg>
