<svg width="30" height="30" viewBox="0 0 30 30" fill="none" xmlns="http://www.w3.org/2000/svg">
<g clip-path="url(#clip0_310_45)">
<path d="M13.6523 0.058609C11.168 0.298843 8.70703 1.17189 6.69141 2.52541C5.04493 3.63283 3.57422 5.10939 2.48438 6.75002C1.98633 7.50002 1.21875 9.01174 0.914066 9.84963C-1.45312 16.336 0.937504 23.625 6.70313 27.4805C10.2539 29.8535 14.6719 30.5801 18.873 29.4844C21.2813 28.8516 23.5781 27.5508 25.4238 25.752C29.3789 21.9082 30.9023 16.3184 29.4434 10.9981C28.3418 6.97267 25.4824 3.48634 21.7383 1.61134C20.2148 0.849625 18.7676 0.398453 17.0215 0.14064C16.2891 0.0351715 14.3906 -0.0117035 13.6523 0.058609ZM16.3828 0.767593C19.6582 1.08986 22.7754 2.56056 25.1074 4.89259C27.7852 7.57619 29.2969 11.2207 29.2969 15C29.2969 18.7793 27.7852 22.4238 25.1074 25.1074C22.4297 27.7793 18.7734 29.2969 15.0059 29.2969C9.53321 29.2969 4.53516 26.168 2.13282 21.2344C0.615238 18.1172 0.292972 14.4785 1.24219 11.1094C2.68946 5.92385 7.06641 1.93361 12.3633 0.943375C13.6406 0.709 15.123 0.644547 16.3828 0.767593Z" fill="white"/>
<path d="M20.7422 8.87102C20.5312 8.94719 18.5039 9.73821 16.2305 10.6347C13.957 11.5253 11.2559 12.5859 10.2246 12.9902C9.19336 13.3945 8.26172 13.787 8.15625 13.8691C7.67578 14.2324 7.67578 14.8359 8.15625 15.1933C8.26172 15.2695 9.09961 15.5917 10.0137 15.9023L11.6719 16.4648L13.0312 15.6093C15.3926 14.1093 17.8359 12.5624 17.9297 12.5097C18.0527 12.4452 18.2168 12.2929 15.498 14.7363C14.1445 15.955 13.0371 16.9687 13.0371 16.998C13.0371 17.0214 13.5762 17.4726 14.2383 17.9941C17.0566 20.2382 18.1875 21.0761 18.5684 21.205C18.8789 21.3046 19.2656 21.287 19.5059 21.1464C19.9805 20.8769 19.916 21.1171 21.1172 15.0878C21.7148 12.0585 22.207 9.4804 22.207 9.35149C22.207 9.17571 22.166 9.08782 22.0078 8.92962C21.8262 8.74798 21.7793 8.7304 21.4688 8.7304C21.2578 8.7304 20.9766 8.78899 20.7422 8.87102ZM21.5039 9.4804C21.5039 9.53899 21.0293 11.9824 20.4492 14.9062C19.8691 17.8359 19.3945 20.2499 19.3945 20.2792C19.3945 20.4023 19.1484 20.5663 18.9668 20.5663C18.8086 20.5663 18.4043 20.2792 16.4355 18.7734C15.1465 17.789 14.0859 16.9745 14.0801 16.9687C14.0684 16.9628 15.3223 15.8202 16.8574 14.4374C20.1445 11.4843 20.1328 11.496 20.1855 11.2558C20.2676 10.8866 19.9395 10.623 19.541 10.7284C19.4297 10.7636 17.5898 11.8945 15.4629 13.2421L11.5957 15.6972L10.1484 15.2109C8.36133 14.6015 8.48438 14.6601 8.50781 14.5136C8.52539 14.414 9.55664 13.9921 14.8477 11.9179C18.3223 10.5527 21.2109 9.42766 21.2637 9.41595C21.4512 9.36321 21.5039 9.37493 21.5039 9.4804Z" fill="white"/>
</g>
<defs>
<clipPath id="clip0_310_45">
<rect width="30" height="30" fill="white"/>
</clipPath>
</defs>
</svg>
