<svg width="25" height="26" viewBox="0 0 25 26" fill="none" xmlns="http://www.w3.org/2000/svg">
<g clip-path="url(#clip0_249_115)">
<circle cx="12" cy="13.2501" r="11" fill="white"/>
<path d="M11.3037 0.803715C7.39749 1.20899 3.97464 3.33301 1.89456 6.64356C-1.05466 11.3359 -0.498021 17.5664 3.23245 21.624C5.30764 23.8799 7.876 25.2227 10.9619 25.6621C11.543 25.7451 13.4619 25.7402 14.0625 25.6572C17.0996 25.2373 19.668 23.8994 21.7383 21.6533C23.4424 19.8076 24.5313 17.4443 24.9121 14.7881C24.9951 14.2119 24.9951 12.2881 24.9121 11.7119C24.6241 9.68067 23.9795 7.95704 22.9102 6.34571C22.461 5.66212 22.0069 5.10547 21.3721 4.46582C19.4239 2.49317 17.0117 1.27735 14.2334 0.867191C13.6328 0.779301 11.8994 0.740238 11.3037 0.803715ZM18.0664 8.44044C18.3545 8.71387 18.3594 8.9043 18.1104 10.7354C17.8906 12.3662 17.1338 16.9658 16.8653 18.2793C16.7676 18.7627 16.5772 19.1777 16.3721 19.3535C16.2256 19.4854 16.1719 19.5 15.8789 19.5C15.6397 19.5 15.4883 19.4707 15.3076 19.3828C14.9951 19.2412 11.1719 16.6631 10.918 16.4287C10.6885 16.2139 10.5811 15.9844 10.625 15.7988C10.6885 15.5352 10.9815 15.2227 12.3535 13.9336C13.9746 12.4102 14.7998 11.6045 14.917 11.4287C15.0244 11.2627 14.9463 11.1016 14.7608 11.1016C14.5996 11.1016 14.7315 11.0186 11.5967 13.1035C8.6719 15.0469 8.60354 15.0859 7.98342 15.0713C7.50979 15.0615 5.62503 14.5488 5.10256 14.29C4.56546 14.0215 4.62893 13.6211 5.25393 13.3086C5.79592 13.0352 12.2266 10.2715 14.2481 9.44629C17.1875 8.24024 17.71 8.09864 18.0664 8.44044Z" fill="#25A2E0"/>
</g>
<defs>
<clipPath id="clip0_249_115">
<rect width="25" height="25" fill="white" transform="translate(0 0.75)"/>
</clipPath>
</defs>
</svg>
