<svg width="20" height="21" viewBox="0 0 20 21" fill="none" xmlns="http://www.w3.org/2000/svg">
<g clip-path="url(#clip0_110_540)">
<path d="M9.78183 1.50949C7.90292 1.6803 6.22825 2.31527 4.74295 3.42182C4.27508 3.77086 3.26508 4.78086 2.91604 5.24873C1.92831 6.57065 1.32677 8.02253 1.06684 9.69349C0.977721 10.2913 0.977721 11.6949 1.06684 12.2928C1.32677 13.9637 1.92831 15.4156 2.91604 16.7375C3.26508 17.2054 4.27508 18.2154 4.74295 18.5644C6.06487 19.5522 7.51675 20.1537 9.18771 20.4136C9.78554 20.5027 11.1891 20.5027 11.787 20.4136C13.4579 20.1537 14.9098 19.5522 16.2317 18.5644C16.6996 18.2154 17.7096 17.2054 18.0587 16.7375C19.0464 15.4156 19.6479 13.9637 19.9079 12.2928C19.997 11.6949 19.997 10.2913 19.9079 9.69349C19.6479 8.02253 19.0464 6.57065 18.0587 5.24873C17.7096 4.78086 16.6996 3.77086 16.2317 3.42182C14.9172 2.44152 13.4468 1.82883 11.8241 1.58005C11.4491 1.52435 10.1346 1.47979 9.78183 1.50949ZM11.6533 2.39696C13.1572 2.60862 14.5014 3.15818 15.723 4.07163C16.2243 4.44667 17.0338 5.25616 17.4088 5.75745C18.3409 7.0051 18.8941 8.37529 19.1058 9.95342C19.1652 10.4064 19.1652 11.5798 19.1058 12.0328C18.8941 13.611 18.3409 14.9812 17.4088 16.2288C17.0338 16.7301 16.2243 17.5396 15.723 17.9146C14.6945 18.6833 13.5136 19.2254 12.3254 19.4705C11.6199 19.619 11.2226 19.6598 10.4873 19.6598C9.50333 19.6598 8.65671 19.5262 7.77667 19.2365C6.48446 18.8132 5.34821 18.1077 4.36049 17.12C2.96059 15.7238 2.13997 14.0417 1.8689 12.0328C1.80949 11.5798 1.80949 10.4064 1.8689 9.95342C2.08055 8.37529 2.63383 7.0051 3.56585 5.75745C3.94089 5.25616 4.75038 4.44667 5.25167 4.07163C6.64785 3.03193 8.12201 2.48608 9.96749 2.32641C10.2683 2.30042 11.2671 2.34126 11.6533 2.39696Z" fill="#1F1F1F"/>
<path d="M10.2199 3.67432C10.1011 3.77829 10.0974 3.79315 10.0974 4.06793C10.0974 4.34271 10.1011 4.35756 10.2199 4.46153C10.3091 4.54322 10.3759 4.56921 10.4873 4.56921C10.5987 4.56921 10.6655 4.54322 10.7547 4.46153C10.8735 4.35756 10.8772 4.34271 10.8772 4.06793C10.8772 3.79315 10.8735 3.77829 10.7547 3.67432C10.6655 3.59263 10.5987 3.56664 10.4873 3.56664C10.3759 3.56664 10.3091 3.59263 10.2199 3.67432Z" fill="#1F1F1F"/>
<path d="M5.36311 5.67574C5.28885 5.71287 5.20716 5.79456 5.17002 5.86882C5.07719 6.0582 5.13289 6.23272 5.35197 6.4221C5.49308 6.54835 5.54878 6.57434 5.68245 6.57434C5.90525 6.57434 6.06863 6.41096 6.06863 6.18816C6.06863 6.05449 6.04264 5.99879 5.9201 5.85768C5.8347 5.76485 5.73072 5.67574 5.68617 5.6646C5.64161 5.64974 5.57848 5.63489 5.54878 5.62375C5.51907 5.61632 5.43367 5.6386 5.36311 5.67574Z" fill="#1F1F1F"/>
<path d="M15.3256 5.64974C15.2625 5.66831 15.1437 5.76114 15.0582 5.85397C14.932 5.99879 14.906 6.05449 14.906 6.18816C14.906 6.41096 15.0694 6.57434 15.2922 6.57434C15.4259 6.57434 15.4816 6.54835 15.6227 6.4221C15.8306 6.24015 15.8937 6.06934 15.8158 5.88368C15.7341 5.68688 15.5335 5.59033 15.3256 5.64974Z" fill="#1F1F1F"/>
<path d="M10.3128 6.70432C10.0751 6.8083 10.0789 6.76374 10.0789 9.0251C10.0789 10.7332 10.0863 11.086 10.1308 11.1714C10.1977 11.2976 14.7427 15.8352 14.8652 15.8946C15.1623 16.0469 15.5336 15.6495 15.3777 15.3525C15.3442 15.2931 14.3231 14.2496 13.1089 13.0354L10.8958 10.826V8.90257C10.8958 6.76745 10.8995 6.80458 10.6544 6.70061C10.4985 6.63749 10.465 6.63749 10.3128 6.70432Z" fill="#1F1F1F"/>
<path d="M3.29851 10.6181C3.04972 10.7258 2.98659 11.0562 3.16854 11.2605C3.27251 11.3793 3.28737 11.383 3.56215 11.383C3.83693 11.383 3.85178 11.3793 3.95575 11.2605C4.10428 11.0934 4.10428 10.8928 3.95575 10.7258C3.85921 10.6181 3.82579 10.6069 3.61413 10.5958C3.48417 10.5921 3.33935 10.5995 3.29851 10.6181Z" fill="#1F1F1F"/>
<path d="M17.1488 10.6181C16.9001 10.7258 16.8369 11.0562 17.0189 11.2605C17.1229 11.3793 17.1377 11.383 17.4125 11.383C17.6873 11.383 17.7021 11.3793 17.8061 11.2605C17.9546 11.0934 17.9546 10.8928 17.8061 10.7258C17.7095 10.6181 17.6761 10.6069 17.4645 10.5958C17.3345 10.5921 17.1897 10.5995 17.1488 10.6181Z" fill="#1F1F1F"/>
<path d="M5.35197 15.5641C5.13289 15.7535 5.07719 15.928 5.17002 16.1174C5.20716 16.1954 5.28514 16.2734 5.36311 16.3105C5.55249 16.4033 5.72701 16.3476 5.91639 16.1286C6.04264 15.9875 6.06863 15.9318 6.06863 15.7981C6.06863 15.6718 6.04635 15.6198 5.95352 15.527C5.86069 15.4342 5.8087 15.4119 5.68245 15.4119C5.54878 15.4119 5.49308 15.4379 5.35197 15.5641Z" fill="#1F1F1F"/>
<path d="M10.2199 17.5247C10.1011 17.6287 10.0974 17.6435 10.0974 17.9183C10.0974 18.1931 10.1011 18.208 10.2199 18.3119C10.3091 18.3936 10.3759 18.4196 10.4873 18.4196C10.5987 18.4196 10.6655 18.3936 10.7547 18.3119C10.8735 18.208 10.8772 18.1931 10.8772 17.9183C10.8772 17.6435 10.8735 17.6287 10.7547 17.5247C10.6655 17.443 10.5987 17.417 10.4873 17.417C10.3759 17.417 10.3091 17.443 10.2199 17.5247Z" fill="#1F1F1F"/>
</g>
<defs>
<clipPath id="clip0_110_540">
<rect width="20" height="20" fill="white" transform="translate(0 0.5)"/>
</clipPath>
</defs>
</svg>
