<svg width="31" height="33" viewBox="0 0 31 33" fill="none" xmlns="http://www.w3.org/2000/svg">
<path d="M15.043 0.36987C14.0887 0.375337 13.1316 0.432758 12.1664 0.550337C10.3207 0.777291 8.4914 1.15463 6.73593 1.96127C3.94414 3.24369 1.96445 5.42026 1.39023 8.58393C1.14687 9.9183 0.949991 11.2718 0.837886 12.6335C0.621873 15.2777 0.755853 17.93 1.50508 20.5359C2.0957 22.5894 3.18399 24.4351 5.08984 25.6327C5.89648 26.1386 6.96016 26.3847 7.51523 26.6417C7.67109 26.7156 7.70937 26.7593 7.71757 26.7703C7.72577 26.7785 7.74765 26.7976 7.74491 26.9617C7.72577 28.6351 7.74491 31.8726 7.74491 31.8726L7.74765 32.5699H8.99726L9.1996 32.373C9.1996 32.373 12.3742 29.3187 13.5226 28.0609C13.7305 27.8367 13.8371 27.7109 13.859 27.6972C13.8781 27.6835 13.8453 27.6753 14.0586 27.6699C15.5652 27.6398 17.0691 27.5824 18.573 27.5003C20.5555 27.391 22.5762 27.2023 24.5203 26.3902C26.2129 25.682 27.6266 24.5253 28.4824 22.7917C29.3574 21.0144 29.825 19.1304 30 17.1808C30.2898 13.9351 30.1887 10.6839 29.2918 7.47925C28.7641 5.60074 27.7031 4.01207 26.0762 2.89097C24.1293 1.55113 21.9336 1.048 19.7844 0.728081C18.5293 0.542147 17.266 0.419094 15.9973 0.380818C15.6801 0.372614 15.3629 0.367133 15.043 0.36987ZM16 1.01095C17.2359 1.01095 18.7914 1.33047 20 1.51095C22.0727 1.81993 23.8238 2.35704 25.5 3.51095C26.859 4.44611 28.1127 6.27612 28.5666 7.88667C29.4033 10.8835 29.2816 14.8637 29 18C28.8387 19.8074 27.7902 21.8949 27 23.5C26 24.5 24.9602 25.3902 23.5 26C21.8047 26.7082 20.5144 26.6636 18.573 26.7703C17.0855 26.8523 15.5488 26.9316 14.0586 26.9617C13.684 26.9699 13.4883 27.1778 13.2285 27.3692C12.9687 27.5606 12.6613 27.825 12.5 28C11.6253 28.9488 9.5 31 8.64716 31.5C8.64169 30.4555 8.63349 28.534 8.64716 27.3692C8.65263 27.011 8.70508 26.7898 8.5 26.5C8.29492 26.2102 8.01835 26.018 7.74765 25.8922C6.95741 25.5258 5.94843 25.2926 5.5 25.0109C3.9332 24.0266 3.02768 22.2067 2.49995 20.3692C1.80815 17.9656 2 14 2 13.5C2 13 2.23158 8.13437 2.5 7.5C2.76842 6.86563 4.81842 3.8636 5.5 3.5C6.18158 3.1364 9.83874 1.66953 10.5 1.51095C11.1613 1.35236 14.7641 1.01095 16 1.01095ZM16.2543 5.26987C15.6773 5.26987 15.1168 5.33549 14.5726 5.45581C14.198 5.54331 13.9602 5.91792 14.0449 6.29526C14.1297 6.67261 14.507 6.90776 14.8844 6.823C15.3246 6.72183 15.784 6.66987 16.2543 6.66987C19.6723 6.66987 22.4285 9.42612 22.4285 12.8414C22.4285 13.3144 22.3766 13.7738 22.2754 14.2167C22.1906 14.5914 22.4258 14.9687 22.8031 15.0535C23.1805 15.1382 23.5551 14.9003 23.6398 14.523C23.7629 13.9816 23.8285 13.421 23.8285 12.8414C23.8285 8.6687 20.4297 5.26987 16.2543 5.26987ZM16.2434 7.36987C15.9344 7.36987 15.6281 7.39448 15.3273 7.44643C15.073 7.47925 14.857 7.64878 14.7641 7.88667C14.6711 8.1273 14.7176 8.398 14.8816 8.59487C15.0484 8.78901 15.3109 8.87925 15.5625 8.82456C15.7812 8.78902 16.0109 8.76988 16.2434 8.76988C18.5184 8.76988 20.3449 10.5964 20.3449 12.8714C20.3449 13.1039 20.3258 13.3336 20.2902 13.5523C20.2356 13.8039 20.3258 14.0664 20.5199 14.2332C20.7168 14.3972 20.9875 14.4437 21.2281 14.3507C21.466 14.2578 21.6356 14.0418 21.6684 13.7875C21.7203 13.4867 21.7449 13.1804 21.7449 12.8715C21.7449 9.84177 19.273 7.36987 16.2434 7.36987ZM16.1449 9.46987C15.8934 9.46713 15.6582 9.59838 15.5297 9.81713C15.4039 10.0359 15.4039 10.3038 15.5297 10.5226C15.6582 10.7413 15.8933 10.8726 16.1449 10.8699C17.3125 10.8699 18.2449 11.8023 18.2449 12.9699C18.2422 13.2214 18.3734 13.4566 18.5922 13.5851C18.8109 13.7109 19.0789 13.7109 19.2976 13.5851C19.5164 13.4566 19.6476 13.2214 19.6449 12.9699C19.6449 11.0449 18.0699 9.46987 16.1449 9.46987Z" fill="black" fill-opacity="0.68"/>
<path d="M7.53711 7.12551C6.99805 7.30129 6.64062 7.51223 6.44727 7.76418C6.25977 8.01614 5.65039 9.21731 5.41016 9.82668C5.1875 10.395 5 11.145 5 11.4966C5 11.8423 5.24609 12.9087 5.48047 13.606C5.70312 14.2564 6.44727 15.7857 6.85742 16.4185C8.3457 18.7505 10.3438 20.7486 12.6758 22.2368C13.3613 22.6763 14.8672 23.4029 15.5762 23.6372C15.9336 23.7544 16.5078 23.9126 16.8535 23.9829C17.4219 24.1001 17.5391 24.1118 17.9434 24.0474C18.6055 23.9536 19.25 23.7251 20.293 23.2095C21.5176 22.6118 21.7051 22.4185 21.9922 21.4634C22.1562 20.9243 22.127 20.479 21.9043 20.0161C21.7695 19.7407 21.5879 19.5591 20.6387 18.7447C19.2852 17.5904 19.0859 17.4673 18.5059 17.4263C17.9199 17.3911 17.6387 17.4966 16.8652 18.065C16.127 18.6099 16.0508 18.645 15.6758 18.645C15.459 18.645 15.3125 18.5982 15.0312 18.4282C13.5137 17.5318 11.5625 15.5806 10.666 14.063C10.4961 13.7818 10.4492 13.6353 10.4492 13.4185C10.4492 13.0435 10.4844 12.9673 11.0293 12.229C11.5977 11.4556 11.7031 11.1743 11.668 10.5884C11.627 10.0083 11.5039 9.8091 10.3496 8.45559C9.5293 7.50051 9.35938 7.32473 9.07227 7.18996C8.60352 6.96145 8.09375 6.93801 7.53711 7.12551ZM8.7207 7.79934C8.89648 7.87551 9.18945 8.17434 9.86328 8.97121C10.3613 9.56301 10.8184 10.1255 10.8711 10.2251C11.0117 10.4829 11.0059 10.9341 10.8535 11.2388C10.6484 11.6724 10.6016 11.6782 10.2324 11.315C9.42383 10.5239 8.14062 9.04153 7.53125 8.19778L7.33789 7.92825L7.70703 7.81106C8.16992 7.66457 8.42188 7.65871 8.7207 7.79934ZM7.29102 9.03567C7.84766 9.77981 8.62695 10.6763 9.42969 11.4966L10.1504 12.229L10.0391 12.3755C9.82812 12.645 9.72852 13.0611 9.75781 13.5181C9.78125 13.8697 9.82227 14.0103 10.0098 14.3384C10.8887 15.9204 13.1738 18.2056 14.7559 19.0845C15.084 19.272 15.2246 19.313 15.5762 19.3364C16.0332 19.3657 16.4492 19.2661 16.7188 19.0552L16.8652 18.9439L17.5977 19.6646C18.418 20.4673 19.3145 21.2466 20.0586 21.8032C20.334 22.0083 20.5801 22.1958 20.6035 22.2193C20.668 22.2779 19.3145 22.9341 18.6758 23.1509C17.9023 23.4146 17.5801 23.4322 16.8066 23.2564C15.1484 22.8814 13.2441 21.9029 11.5098 20.5376C10.7832 19.9634 9.13086 18.3111 8.55664 17.5845C7.14453 15.7915 6.11328 13.7407 5.78516 12.0591C5.66211 11.4204 5.71484 11.0103 6.03125 10.19C6.30078 9.48098 6.82227 8.43215 6.875 8.49075C6.89844 8.51418 7.08594 8.76028 7.29102 9.03567ZM18.8691 18.2232C18.9688 18.2759 19.5254 18.7271 20.1113 19.2193C21.4648 20.3736 21.5645 20.5552 21.2832 21.3872L21.1602 21.7505L20.8965 21.5572C20.0527 20.9536 18.5645 19.6704 17.7793 18.8618C17.4219 18.4927 17.4219 18.4517 17.8496 18.2407C18.1484 18.0884 18.6055 18.0825 18.8691 18.2232Z" fill="#333333"/>
</svg>
