<svg width="30" height="30" viewBox="0 0 30 30" fill="none" xmlns="http://www.w3.org/2000/svg">
<g clip-path="url(#clip0_83_2010)">
<circle cx="15" cy="15" r="15" fill="#665CAC"/>
<g clip-path="url(#clip1_83_2010)">
<path d="M21.9229 7.75277C21.4831 7.34402 19.7018 6.03002 15.7349 6.01277C15.7349 6.01277 11.054 5.72852 8.77377 7.85177C7.50542 9.13877 7.0612 11.0235 7.0102 13.3613C6.9592 15.699 6.90229 20.0805 11.0643 21.2715H11.068L11.0643 23.0858C11.0643 23.0858 11.037 23.8208 11.513 23.9685C12.088 24.1515 12.428 23.592 12.9787 22.9905C13.2802 22.6598 13.6956 22.1753 14.0112 21.8055C15.8199 21.9755 17.6439 21.8343 19.4062 21.3878L19.2953 21.4118C19.8703 21.222 23.124 20.7998 23.6502 16.419C24.2002 11.8965 23.3886 9.04352 21.9229 7.75277ZM22.4048 16.089C21.9562 19.7453 19.3204 19.9778 18.8356 20.1353C17.7771 20.4083 16.562 20.5643 15.3106 20.5643C14.9514 20.5643 14.5952 20.5515 14.2426 20.526L14.2899 20.529C14.2899 20.529 12.4879 22.7333 11.9269 23.3063C11.7436 23.4923 11.5418 23.4773 11.5455 23.106C11.5455 22.8638 11.5596 20.0925 11.5596 20.0925C8.03612 19.101 8.24012 15.369 8.28151 13.4198C8.3229 11.4705 8.68359 9.86852 9.75755 8.79302C11.6882 7.01777 15.6625 7.28102 15.6625 7.28102C19.0203 7.29527 20.6279 8.32202 21.0019 8.66627C22.2392 9.74252 22.8697 12.3173 22.4048 16.089ZM17.5923 13.248V13.2585C17.5908 13.3169 17.5672 13.3725 17.5264 13.4138C17.4857 13.455 17.4308 13.4788 17.3733 13.4803C17.3157 13.4817 17.2598 13.4607 17.2171 13.4215C17.1744 13.3823 17.1481 13.328 17.1437 13.2698C17.1587 13.1132 17.1401 12.9544 17.0891 12.8058C17.0381 12.6572 16.956 12.5217 16.8483 12.4084C16.7407 12.2952 16.6101 12.207 16.4656 12.15C16.3211 12.0929 16.1661 12.0684 16.0113 12.078H16.0143C15.9569 12.0735 15.9033 12.0468 15.8647 12.0034C15.8262 11.9599 15.8055 11.9031 15.807 11.8447C15.8085 11.7863 15.8321 11.7306 15.8729 11.6893C15.9137 11.648 15.9685 11.6242 16.0261 11.6228H16.0387H16.0379L16.0889 11.622C16.2953 11.622 16.4995 11.6649 16.6888 11.7483C16.8781 11.8316 17.0485 11.9536 17.1894 12.1065C17.3303 12.2595 17.4387 12.4402 17.5079 12.6375C17.5771 12.8348 17.6056 13.0444 17.5916 13.2533V13.2488L17.5923 13.248ZM18.2952 13.6463C18.33 12.1553 17.412 10.9883 15.6691 10.8578C15.6389 10.8568 15.6091 10.8497 15.5817 10.8368C15.5542 10.8239 15.5296 10.8055 15.5094 10.7827C15.4891 10.7599 15.4735 10.7332 15.4637 10.7041C15.4538 10.6751 15.4499 10.6444 15.452 10.6137C15.4541 10.5831 15.4624 10.5533 15.4762 10.5259C15.49 10.4986 15.509 10.4744 15.5323 10.4547C15.5555 10.4351 15.5824 10.4204 15.6114 10.4115C15.6404 10.4027 15.6708 10.3999 15.7009 10.4033H15.7002H15.7127C16.1263 10.4033 16.5356 10.489 16.9154 10.6553C17.2951 10.8216 17.6374 11.065 17.9211 11.3703C18.2048 11.6757 18.424 12.0367 18.5653 12.4312C18.7065 12.8257 18.7668 13.2453 18.7424 13.6643L18.7432 13.656C18.7392 13.7141 18.7135 13.7685 18.6712 13.808C18.629 13.8475 18.5735 13.869 18.516 13.8683C18.4586 13.8675 18.4037 13.8445 18.3625 13.8039C18.3213 13.7633 18.297 13.7082 18.2945 13.65V13.644L18.2952 13.6463ZM19.9213 14.118V14.1195C19.9183 14.1777 19.8935 14.2324 19.852 14.2726C19.8105 14.3128 19.7554 14.3353 19.6981 14.3356C19.6407 14.3359 19.5854 14.3139 19.5435 14.2742C19.5016 14.2344 19.4762 14.1799 19.4727 14.1218C19.4549 11.2553 17.5709 9.69452 15.2877 9.67802C15.2583 9.67802 15.2292 9.67214 15.202 9.66072C15.1748 9.6493 15.1502 9.63256 15.1294 9.61146C15.1086 9.59036 15.0921 9.56531 15.0808 9.53774C15.0696 9.51016 15.0638 9.48061 15.0638 9.45077C15.0638 9.42093 15.0696 9.39138 15.0808 9.36381C15.0921 9.33623 15.1086 9.31118 15.1294 9.29008C15.1502 9.26898 15.1748 9.25224 15.202 9.24082C15.2292 9.2294 15.2583 9.22352 15.2877 9.22352C17.8444 9.24152 19.8992 11.0318 19.9199 14.1173L19.9213 14.118ZM19.5333 17.5665V17.5733C19.1593 18.2415 18.4593 18.9795 17.7387 18.744L17.732 18.7335C16.4472 18.2538 15.2428 17.5761 14.1613 16.7243L14.1916 16.7468C13.6534 16.3132 13.1652 15.8193 12.7362 15.2745L12.7222 15.2558C12.3338 14.7596 11.9872 14.2313 11.6859 13.6763L11.6564 13.617C11.3 13.0209 11.0045 12.3893 10.7746 11.7323L10.7524 11.6588C10.5203 10.9275 11.2439 10.2173 11.9062 9.83777H11.9129C12.0431 9.75314 12.1996 9.7202 12.3523 9.74525C12.505 9.77029 12.6433 9.85156 12.7407 9.97352L12.7414 9.97502C12.7414 9.97502 13.1709 10.4948 13.3549 10.752C13.5279 10.9913 13.7607 11.3745 13.8812 11.5883C13.9719 11.7343 14.0088 11.9082 13.9854 12.0792C13.962 12.2502 13.8798 12.4073 13.7533 12.5228L13.7526 12.5235L13.3372 12.861C13.2724 12.9245 13.2223 13.0017 13.1906 13.0872C13.1589 13.1727 13.1464 13.2642 13.1539 13.3553V13.353C13.3595 14.0485 13.7308 14.6819 14.2348 15.1974C14.7388 15.7129 15.3601 16.0946 16.0439 16.3088L16.0749 16.317C16.1642 16.3242 16.2539 16.3113 16.3377 16.2792C16.4215 16.2472 16.4973 16.1969 16.5598 16.1318L16.8924 15.7103C17.0066 15.5813 17.1622 15.4977 17.3315 15.4742C17.5008 15.4507 17.6729 15.4889 17.817 15.582L17.8141 15.5805C18.415 15.9278 18.9346 16.3095 19.4084 16.7423L19.4002 16.7348C19.5204 16.832 19.6004 16.9714 19.6245 17.1254C19.6486 17.2795 19.615 17.4371 19.5303 17.5673L19.5318 17.565L19.5333 17.5665Z" fill="white"/>
</g>
</g>
<defs>
<clipPath id="clip0_83_2010">
<rect width="30" height="30" fill="white"/>
</clipPath>
<clipPath id="clip1_83_2010">
<rect width="17" height="18" fill="white" transform="translate(7 6)"/>
</clipPath>
</defs>
</svg>
