<svg width="25" height="25" viewBox="0 0 25 25" fill="none" xmlns="http://www.w3.org/2000/svg">
<circle cx="12.5" cy="12.5" r="12.5" fill="white"/>
<path d="M11.3153 0.0279479C7.07504 0.438042 3.28423 3.00601 1.3644 6.77497C0.685379 8.10778 0.284805 9.39176 0.064977 10.9394C-0.0327242 11.6229 -0.018069 13.3999 0.0942874 14.1615C0.284805 15.5188 0.685379 16.8028 1.3009 18.0379C2.51728 20.4887 4.46153 22.4318 6.91871 23.6523C10.9 25.6344 15.6092 25.361 19.3219 22.9346C20.7727 21.9875 22.1503 20.5815 23.0883 19.0876C23.4498 18.5212 23.9871 17.4179 24.2314 16.7539C24.4805 16.0802 24.7687 14.9183 24.8713 14.1615C24.9837 13.3951 24.9983 11.618 24.9006 10.9394C24.6124 8.91332 23.9676 7.18507 22.8977 5.57398C22.4483 4.89049 21.994 4.33394 21.3589 3.69439C19.4098 1.72691 16.9868 0.506391 14.217 0.0962969C13.621 0.00841962 11.9406 -0.030637 11.3153 0.0279479ZM13.4598 4.73427C14.4319 4.86608 15.1647 5.09554 16.0538 5.55445C19.7762 7.46334 21.2954 12.072 19.4342 15.8215C18.6722 17.3544 17.5144 18.531 15.9952 19.3073C13.9532 20.3471 11.5497 20.4301 9.41986 19.5269L9.01929 19.3561L7.05061 19.8199C5.96613 20.0786 5.05262 20.2886 5.01354 20.2886C4.8963 20.2886 4.7644 20.1372 4.7644 20.0005C4.7644 19.9322 4.94515 18.9948 5.16498 17.9256C5.56067 16.0021 5.56067 15.9728 5.48739 15.7775C5.44343 15.6652 5.32618 15.3674 5.22848 15.1136C4.61297 13.5366 4.57877 11.6619 5.13078 9.96297C5.31641 9.40153 5.79515 8.45441 6.14687 7.95155C6.52302 7.41452 7.4463 6.49181 7.97389 6.11589C9.56153 4.99302 11.5742 4.48528 13.4598 4.73427Z" fill="#40C351"/>
<path d="M12.1164 6.35999C11.2029 6.43323 10.4799 6.63827 9.69831 7.0386C7.06038 8.39094 5.80003 11.4569 6.71842 14.2982C6.79658 14.5423 6.97245 14.9573 7.10434 15.221L7.33882 15.6896L7.09946 16.8516C6.96756 17.4911 6.86986 18.0379 6.87474 18.0721C6.88451 18.1063 7.26555 18.0379 8.06181 17.8475L9.23423 17.5692L9.69831 17.7987C11.7549 18.819 14.046 18.6775 15.9219 17.4081C18.125 15.9289 19.0874 13.0484 18.2374 10.5C17.6316 8.68386 16.1661 7.229 14.3635 6.65292C13.8408 6.48693 13.5722 6.43323 13.0201 6.37464C12.561 6.32582 12.4974 6.32582 12.1164 6.35999ZM10.1624 8.73756C10.348 8.81568 10.392 8.89379 10.8268 9.87509C10.9831 10.2412 11.115 10.6074 11.115 10.7002C11.115 10.8173 11.0466 10.9491 10.8463 11.2128C10.519 11.6424 10.4995 11.7986 10.7291 12.1648C10.9147 12.4626 11.7989 13.3365 12.2874 13.7075C13.0495 14.2885 13.3865 14.4252 13.6699 14.2787C13.7285 14.2445 13.9141 14.0932 14.0802 13.937C14.3245 13.7026 14.4075 13.6489 14.5443 13.6489C14.6322 13.6489 15.0816 13.7612 15.536 13.893C16.2443 14.0981 16.386 14.1518 16.5032 14.2836C16.596 14.391 16.6351 14.4838 16.6351 14.6205C16.6351 15.0208 15.917 15.8361 15.3796 16.046C15.0035 16.1925 14.1437 16.2071 13.6308 16.0704C12.3949 15.7433 10.9049 14.6986 9.81555 13.3902C8.95089 12.3601 8.60405 11.5594 8.59917 10.622C8.59917 10.1387 8.60894 10.0899 8.76038 9.77745C8.86785 9.56263 9.04371 9.32829 9.26354 9.10372C9.70319 8.65945 9.83997 8.60575 10.1624 8.73756Z" fill="#40C351"/>
</svg>
