<svg width="30" height="30" viewBox="0 0 30 30" fill="none" xmlns="http://www.w3.org/2000/svg">
<g clip-path="url(#clip0_310_49)">
<path d="M13.623 0.0646515C8.17968 0.591995 3.48046 4.10176 1.4414 9.1877C1.01366 10.2482 0.755851 11.1857 0.544913 12.4514C0.416007 13.2541 0.392569 15.7912 0.515616 16.5822C0.890616 19.0256 1.7871 21.2756 3.11132 23.0979C3.26952 23.3147 3.39843 23.5373 3.39843 23.5842C3.39843 23.6311 2.98827 25.0197 2.48437 26.6604C1.90429 28.5705 1.58788 29.6955 1.61132 29.7717C1.70507 30.0647 1.69921 30.0647 5.78905 29.1213L9.65624 28.2248L10.3769 28.465C11.9414 28.9807 13.2891 29.1975 14.9707 29.1975C16.9277 29.2033 18.5449 28.9045 20.3203 28.2131C22.2891 27.4397 23.9766 26.3147 25.4883 24.7502C27.75 22.424 29.1328 19.5002 29.5078 16.2541C29.6367 15.1525 29.5957 13.2658 29.4199 12.2873C28.957 9.67403 27.9316 7.38301 26.3262 5.39082C23.3203 1.65254 18.4336 -0.39238 13.623 0.0646515ZM17.2851 0.902542C21.1582 1.57637 24.4043 3.67989 26.5898 6.94356C27.75 8.67208 28.5937 11.0158 28.8223 13.1369C28.9043 13.8693 28.9043 15.3693 28.8223 16.1018C28.5352 18.7502 27.3867 21.4748 25.7109 23.467C25.207 24.0647 24.293 24.967 23.7305 25.4299C22.3418 26.5666 20.2734 27.6096 18.498 28.0607C15.7851 28.758 13.1367 28.6525 10.459 27.7443L9.69726 27.4865L6.09374 28.3244C4.11327 28.7873 2.48437 29.1623 2.47851 29.1565C2.47265 29.1506 2.84765 27.8908 3.31054 26.3615C3.77929 24.8381 4.16015 23.5314 4.16015 23.467C4.16015 23.4025 4.00194 23.1272 3.80273 22.8518C2.33202 20.7951 1.43554 18.4982 1.17773 16.1018C1.09569 15.3693 1.09569 13.8693 1.17773 13.1369C1.61718 9.04122 3.8496 5.35567 7.26562 3.07637C9.22851 1.76973 11.3203 1.01387 13.6816 0.761917C14.5547 0.668167 16.3418 0.73848 17.2851 0.902542Z" fill="white"/>
<path d="M8.98242 6.58608C8.44336 6.76186 8.08594 6.9728 7.89258 7.22475C7.70508 7.47671 7.0957 8.67788 6.85547 9.28725C6.63281 9.85561 6.44531 10.6056 6.44531 10.9572C6.44531 11.3029 6.69141 12.3693 6.92578 13.0666C7.14844 13.7169 7.89258 15.2462 8.30273 15.8791C9.79102 18.2111 11.7891 20.2091 14.1211 21.6974C14.8066 22.1369 16.3125 22.8634 17.0215 23.0978C17.3789 23.215 17.9531 23.3732 18.2988 23.4435C18.8672 23.5607 18.9844 23.5724 19.3887 23.508C20.0508 23.4142 20.6953 23.1857 21.7383 22.6701C22.9629 22.0724 23.1504 21.8791 23.4375 20.924C23.6016 20.3849 23.5723 19.9396 23.3496 19.4767C23.2148 19.2013 23.0332 19.0197 22.084 18.2052C20.7305 17.0509 20.5312 16.9279 19.9512 16.8869C19.3652 16.8517 19.084 16.9572 18.3105 17.5255C17.5723 18.0705 17.4961 18.1056 17.1211 18.1056C16.9043 18.1056 16.7578 18.0587 16.4766 17.8888C14.959 16.9923 13.0078 15.0412 12.1113 13.5236C11.9414 13.2423 11.8945 13.0958 11.8945 12.8791C11.8945 12.5041 11.9297 12.4279 12.4746 11.6896C13.043 10.9162 13.1484 10.6349 13.1133 10.049C13.0723 9.46889 12.9492 9.26968 11.7949 7.91616C10.9746 6.96108 10.8047 6.7853 10.5176 6.65054C10.0488 6.42202 9.53906 6.39858 8.98242 6.58608ZM10.166 7.25991C10.3418 7.33608 10.6348 7.63491 11.3086 8.43179C11.8066 9.02358 12.2637 9.58608 12.3164 9.68569C12.457 9.9435 12.4512 10.3947 12.2988 10.6994C12.0938 11.133 12.0469 11.1388 11.6777 10.7755C10.8691 9.98452 9.58594 8.5021 8.97656 7.65835L8.7832 7.38882L9.15234 7.27163C9.61523 7.12514 9.86719 7.11929 10.166 7.25991ZM8.73633 8.49624C9.29297 9.24038 10.0723 10.1369 10.875 10.9572L11.5957 11.6896L11.4844 11.8361C11.2734 12.1056 11.1738 12.5216 11.2031 12.9787C11.2266 13.3302 11.2676 13.4708 11.4551 13.799C12.334 15.381 14.6191 17.6662 16.2012 18.5451C16.5293 18.7326 16.6699 18.7736 17.0215 18.797C17.4785 18.8263 17.8945 18.7267 18.1641 18.5158L18.3105 18.4044L19.043 19.1251C19.8633 19.9279 20.7598 20.7072 21.5039 21.2638C21.7793 21.4689 22.0254 21.6564 22.0488 21.6798C22.1133 21.7384 20.7598 22.3947 20.1211 22.6115C19.3477 22.8751 19.0254 22.8927 18.252 22.7169C16.5938 22.3419 14.6895 21.3634 12.9551 19.9982C12.2285 19.424 10.5762 17.7716 10.002 17.0451C8.58984 15.2521 7.55859 13.2013 7.23047 11.5197C7.10742 10.881 7.16016 10.4708 7.47656 9.65054C7.74609 8.94155 8.26758 7.89272 8.32031 7.95132C8.34375 7.97475 8.53125 8.22085 8.73633 8.49624ZM20.3145 17.6837C20.4141 17.7365 20.9707 18.1876 21.5566 18.6798C22.9102 19.8341 23.0098 20.0158 22.7285 20.8478L22.6055 21.2111L22.3418 21.0177C21.498 20.4142 20.0098 19.131 19.2246 18.3224C18.8672 17.9533 18.8672 17.9123 19.2949 17.7013C19.5938 17.549 20.0508 17.5431 20.3145 17.6837Z" fill="white"/>
</g>
<defs>
<clipPath id="clip0_310_49">
<rect width="30" height="30" fill="white"/>
</clipPath>
</defs>
</svg>
